<?xml version="1.0" encoding="utf-8"?>
<!-- Generator: Adobe Illustrator 27.1.1, SVG Export Plug-In . SVG Version: 6.00 Build 0)  -->
<svg version="1.1" id="레이어_1" xmlns="http://www.w3.org/2000/svg" xmlns:xlink="http://www.w3.org/1999/xlink" x="0px"
	 y="0px" viewBox="0 0 595.28 841.89" style="enable-background:new 0 0 595.28 841.89;" xml:space="preserve">
<style type="text/css">
	.st0{fill:none;}
	.st1{fill:#FFFFFF;stroke:#000000;stroke-miterlimit:10;}
	.st2{stroke:#FFFFFF;stroke-miterlimit:10;}
	.st3{fill:#FBECF4;stroke:#FFFFFF;stroke-miterlimit:10;}
</style>
<path id="SVGID_x5F_1_x5F_" class="st0" d="M473.82,387.99c-6.79,6.42-20.11,4.33-34.86-4.1c1.01,6.81,1.53,13.78,1.53,20.87
	c0,78.29-63.46,141.75-141.75,141.75S157,483.04,157,404.75c0-7.66,0.62-15.17,1.78-22.5c-18.38,13.43-36.25,18.17-44.5,10.38
	c-10.98-10.37-0.76-39.03,22.83-64.01c23.59-24.98,51.62-36.82,62.6-26.44c0.2,0.19,0.39,0.4,0.58,0.61
	c25.5-24.63,60.21-39.79,98.46-39.79c34.76,0,66.59,12.52,91.24,33.28c11.91-8.01,38.48,3.84,61,27.7
	C474.59,348.95,484.81,377.61,473.82,387.99z"/>
<text><textPath  xlink:href="#SVGID_x5F_1_x5F_" startOffset="76.5234%">
<tspan  style="fill:#DAA673; font-family:'AdobeMyungjoStd-Medium-KSCpc-EUC-H'; font-size:12px;">할배동그리할배동그리할배동그리할배동그리할배동그리할배동그리할배동그리할배동그리할배동그리할배동그리할배동그리할배동그리할배동그리할배동그리할배동그리할배동그리할배동그리할배동그리</tspan></textPath>
</text>
<path class="st1" d="M364.77,546.14c0.61-3.7,0.94-7.49,0.94-11.37c0-5.06-0.55-10-1.58-14.75l-0.41-16.66
	c-0.44-18.06-10.86-34.38-27.04-42.4h0c-10.08-5.66-28.27,4.13-40.65,4.13s-28.54-10.11-38.61-4.45l-9.54,4.1
	c-13.06,5.62-21.53,18.47-21.53,32.69v47.02l0.96,1.82c2.5,15.07,9.84,28.5,20.38,38.65l4.99,9.46l2.14-3.44
	c11.1,8.16,24.71,13.1,39.45,13.46l1.77,2.37l1.26-2.35c11.69-0.21,22.68-3.28,32.28-8.57l5.36,10.03c0.71,1.33,2.69,1.02,2.97-0.45
	l3.34-17.65c5.45-4.65,10.18-10.13,13.98-16.24l10.49,12.79L364.77,546.14z"/>
<circle class="st2" cx="242.35" cy="386.52" r="23.87"/>
<circle class="st2" cx="353.9" cy="386.52" r="23.87"/>
<circle class="st1" cx="236.61" cy="378.19" r="5.74"/>
<circle class="st1" cx="345.97" cy="378.19" r="5.74"/>
<circle class="st3" cx="195.47" cy="437.95" r="33.2"/>
<circle class="st3" cx="401.41" cy="437.95" r="33.2"/>
<g>
	<g>
		<path d="M296.98,461.6c-2.47-0.96-4.77-2.35-6.99-3.78c-1.83-1.18-4.19-2.36-5.46-4.19c-1.18-1.7-0.36-3.73,0.97-5.08
			c1.68-1.69,4.07-2.67,6.29-3.43c5.08-1.75,10.6-2.46,15.96-2.65c4.32-0.15,9.75,0.5,11.87,4.9c0.81,1.69,0.79,3.6-0.82,4.78
			c-2.05,1.5-4.55,2.57-6.93,3.45c-2.62,0.96-5.31,1.71-8.03,2.31c-2.47,0.55-5.12,1.01-7.64,0.53c-1.87-0.35-3.81-1.17-5.03-2.7
			c-0.46-0.58-1.07-1.55-0.86-2.34c0.26-0.95,1.51-1.59,2.29-2.03c2.07-1.15,4.62-1.85,7-1.65c0.44,0.04,0.7,0.07,1.01,0.29
			c-0.23-0.17,0.03,0.21,0.03,0.11c0.03,0.68-0.03,1.13-0.59,1.66c-1.7,1.61-4.99,1.53-7.12,1.28c-1.26-0.14-5.57-0.71-5.23-2.66
			c0.38-2.18,3.45-2.69,5.2-3.03c0.29-0.06,0.59-0.1,0.88-0.16c0.58-0.12,0.35,0.1,0.28-0.13c0.13,0.43-0.38-0.47-0.37-0.47
			c-0.22-0.2,0.19,0.06-0.08,0.15c-0.54,0.19-1.75,0.36-2.61,0.38c0.22,1.64,0.44,3.27,0.66,4.91c0.78-0.19,1.71-0.52,2.54-0.39
			c0.19,0.03,0.57,0.27,0.73,0.29c0.03,0.04,0.05,0.08,0.08,0.11c0.01,0.67,0.44,0.22,1.28-1.34c0.42,0.11,0.84,0.23,1.26,0.34
			c0.23,0.42,0.47,0.84,0.7,1.25c-0.11,0.42-0.23,0.84-0.34,1.26c0.03-0.06,0.06-0.12,0.09-0.18c-0.3,0.3-0.6,0.6-0.9,0.9
			c0.06-0.04,0.12-0.09,0.17-0.13c1-0.75,1.56-1.9,1.02-3.12c-0.46-1.06-1.76-1.89-2.95-1.45c-0.76,0.28-1.53,0.57-2.29,0.85
			c-1.87,0.69-2.65,3.49-0.6,4.57c5.78,3.03,13.21,2.81,18.64-0.95c1.51-1.04,3.2-2.32,3.31-4.31c0.11-1.95-1.23-3.46-2.9-4.27
			c-1.72-0.84-3.64-1.34-5.44-1.97c-2.03-0.7-4.05-1.41-6.08-2.11c0,1.61,0,3.21,0,4.82c2.99-0.57,6.03-0.75,9.06-0.58
			c1.41,0.08,2.8,0.24,4.18,0.5c1.16,0.22,2.61,0.35,3.62,1.01c0.44,0.29,0.36,0.47,0.28-0.17c-0.07-0.54,0.34-0.47-0.44-0.08
			c-1.22,0.61-2.57,1.02-3.88,1.37c-2.81,0.76-5.67,1.02-8.57,0.87c0.8,1.05,1.61,2.11,2.41,3.16c0.35-1.12,1.61-1.71,2.64-1.46
			c-0.37-1.39-0.74-2.79-1.1-4.18c-3.26,2.61-7.66,0.54-11.34,1.35c-2.18,0.48-3.97,2.12-4.32,4.37c-0.36,2.3,0.8,4.57,2.65,5.92
			c2.01,1.47,4.6,1.63,7,1.48c2.46-0.16,4.96-0.46,7.32-1.19c4.41-1.36,8.43-4.39,9.83-8.94c0.72-2.33,0.78-5.63-1.68-6.96
			c-2.69-1.45-5.38,0.82-6.54,3.16c-0.77,1.54-0.08,3.08,1.49,3.67c1.56,0.59,3.78,1.52,4.47,3.12c0.19,0.45,0.15,1.12-0.31,1.75
			c-0.65,0.89-1.69,1.47-2.65,1.96c-4.91,2.54-10.69,2.79-16.1,3.08c-3.2,0.17-3.22,5.17,0,5c7.06-0.38,15.35-0.75,21.11-5.39
			c2.75-2.21,3.97-5.83,2.2-9.05c-1.5-2.74-4.59-4.23-7.39-5.28c0.5,1.22,1,2.45,1.49,3.67c0.15-0.3,0.49-0.67,0.59-0.96
			c0.06-0.13,0.15-0.21,0.27-0.26c-0.6,0.21-1.11-0.01-1.53-0.66c0.02-0.03,0.01,0.73,0.01,0.73c-0.04,0.37-0.13,0.75-0.25,1.1
			c-0.48,1.5-1.56,2.81-2.82,3.74c-3.08,2.28-7.92,3.04-11.67,2.76c-0.92-0.07-2.86-0.57-2.58-1.79c-0.04,0.17,0.4-0.13,0.74-0.19
			c0.48-0.09,1.34-0.04,1.95,0c4.26,0.29,8.11,0.15,11.6-2.63c1.49-1.19,0.59-3.76-1.1-4.18c-3.79-0.93-7.62,1.24-8.79,4.95
			c-0.52,1.62,0.86,3.08,2.41,3.16c3.91,0.2,7.89-0.31,11.6-1.56c1.67-0.57,3.68-1.19,4.97-2.46c1.43-1.42,1.73-3.62,0.66-5.33
			c-2.02-3.23-6.93-3.59-10.33-3.97c-4.17-0.47-8.36-0.21-12.48,0.58c-2.61,0.5-2.13,4.08,0,4.82c2.88,1,5.77,2,8.65,3.01
			c0.55,0.19,1.14,0.35,1.67,0.57c0.67,0.28,0.75,0.55,0.52-0.41c0.13-0.51,0.05-0.56-0.26-0.15c-0.09,0.08-0.19,0.16-0.28,0.24
			c-0.12,0.1-0.25,0.18-0.38,0.27c-0.5,0.35-1.03,0.67-1.58,0.95c-3.69,1.92-8.34,1.93-12.02,0c-0.2,1.52-0.4,3.05-0.6,4.57
			c0.76-0.28,1.53-0.57,2.29-0.85c-0.64-1.52-1.28-3.05-1.93-4.57c-1.86,1.39-2.06,4.11,0.08,5.43c2.24,1.39,4.78-0.49,5.1-2.83
			c0.29-2.14-1.06-4.14-2.93-5.08c-2.13-1.07-4.43-0.7-6.65-0.15c-2.73,0.67-2.17,4.97,0.66,4.91c1.81-0.04,3.75-0.18,5.3-1.23
			c1.44-0.98,2.37-2.59,2.38-4.35c0.01-1.82-1.04-3.42-2.74-4.07c-1.75-0.67-3.84-0.1-5.6,0.32c-3.4,0.82-6.81,2.89-7.51,6.59
			c-0.78,4.14,2.31,6.71,5.9,7.84c3.47,1.1,7.61,1.34,11.1,0.21c3.2-1.03,5.95-3.59,5.81-7.18c-0.35-9.1-13.7-5.17-17.91-1.58
			c-3.22,2.74-2.91,6.99-0.46,10.11c2.09,2.67,5.35,4.18,8.66,4.62c4,0.54,8.03-0.33,11.89-1.34c3.69-0.97,7.32-2.23,10.71-3.99
			c3.44-1.78,6.42-4.01,6.61-8.2c0.15-3.31-1.63-6.56-4.1-8.66c-5.97-5.06-14.48-3.97-21.67-2.97c-3.78,0.53-7.51,1.37-11.04,2.84
			c-3.29,1.37-6.75,3.29-8.37,6.64c-1.68,3.49-1.15,7.25,1.56,10.05c1.18,1.21,2.63,2.16,4.03,3.09c1.58,1.04,3.16,2.08,4.81,3.02
			c1.7,0.97,3.46,1.8,5.28,2.51c1.26,0.49,2.74-0.54,3.08-1.75C299.11,463.26,298.24,462.09,296.98,461.6L296.98,461.6z"/>
	</g>
</g>
</svg>
